<svg width="336" height="445" viewBox="0 0 336 445" fill="none" xmlns="http://www.w3.org/2000/svg">
<g filter="url(#filter0_d_4_2)">
<rect x="2" width="328" height="437" rx="10" fill="#2C2C2C"/>
</g>
<path d="M329.439 213.431C322.611 213.431 315.849 212.06 309.54 209.397C303.231 206.733 297.499 202.829 292.67 197.908C287.841 192.986 284.011 187.144 281.398 180.713C278.784 174.283 277.439 167.391 277.439 160.431C277.439 153.471 278.784 146.579 281.398 140.149C284.011 133.719 287.841 127.876 292.67 122.954C297.499 118.033 303.231 114.129 309.54 111.466C315.849 108.802 322.611 107.431 329.439 107.431L329.439 160.431V213.431Z" fill="white"/>
<path d="M2.5 62C16.9543 62 30.8166 67.4786 41.0373 77.2304C51.2581 86.9823 57 100.209 57 114C57 127.791 51.2581 141.018 41.0373 150.77C30.8166 160.521 16.9543 166 2.50001 166L2.5 114L2.5 62Z" fill="white"/>
<circle cx="158.5" cy="319.5" r="74.5" fill="white"/>
<g filter="url(#filter1_b_4_2)">
<rect x="2" y="1" width="328" height="437" rx="10" fill="#343434" fill-opacity="0.7"/>
</g>
<defs>
<filter id="filter0_d_4_2" x="0" y="0" width="336" height="445" filterUnits="userSpaceOnUse" color-interpolation-filters="sRGB">
<feFlood flood-opacity="0" result="BackgroundImageFix"/>
<feColorMatrix in="SourceAlpha" type="matrix" values="0 0 0 0 0 0 0 0 0 0 0 0 0 0 0 0 0 0 127 0" result="hardAlpha"/>
<feOffset dx="2" dy="4"/>
<feGaussianBlur stdDeviation="2"/>
<feComposite in2="hardAlpha" operator="out"/>
<feColorMatrix type="matrix" values="0 0 0 0 0 0 0 0 0 0 0 0 0 0 0 0 0 0 0.25 0"/>
<feBlend mode="normal" in2="BackgroundImageFix" result="effect1_dropShadow_4_2"/>
<feBlend mode="normal" in="SourceGraphic" in2="effect1_dropShadow_4_2" result="shape"/>
</filter>
<filter id="filter1_b_4_2" x="-98" y="-99" width="528" height="637" filterUnits="userSpaceOnUse" color-interpolation-filters="sRGB">
<feFlood flood-opacity="0" result="BackgroundImageFix"/>
<feGaussianBlur in="BackgroundImageFix" stdDeviation="50"/>
<feComposite in2="SourceAlpha" operator="in" result="effect1_backgroundBlur_4_2"/>
<feBlend mode="normal" in="SourceGraphic" in2="effect1_backgroundBlur_4_2" result="shape"/>
</filter>
</defs>
</svg>
